<svg width="29" height="28" viewBox="0 0 29 28" fill="none" xmlns="http://www.w3.org/2000/svg">
<path d="M27.75 4.00002V11.5M27.75 11.5H20.25M27.75 11.5L21.9625 6.05002C20.2383 4.32469 18 3.2065 15.5849 2.86395C13.1699 2.52139 10.709 2.97304 8.57294 4.15082C6.43692 5.3286 4.74155 7.16871 3.74232 9.39385C2.74309 11.619 2.49413 14.1086 3.03295 16.4876C3.57177 18.8665 4.86919 21.0059 6.72969 22.5834C8.59019 24.1608 10.913 25.0908 13.348 25.2333C15.7831 25.3757 18.1984 24.7229 20.2302 23.3731C22.2619 22.0234 23.8 20.0499 24.6125 17.75" stroke="#28653C" stroke-width="4" stroke-linecap="round" stroke-linejoin="round"/>
</svg>
