<svg width="30" height="30" viewBox="0 0 30 30" fill="none" xmlns="http://www.w3.org/2000/svg">
<path fill-rule="evenodd" clip-rule="evenodd" d="M4.96029 11.25C6.48036 7.18215 10.4019 4.28571 15 4.28571C19.5981 4.28571 23.5196 7.18215 25.0397 11.25H4.96029ZM4.29887 14.4643C4.29013 14.6418 4.28571 14.8204 4.28571 15C4.28571 20.3711 8.23794 24.8192 13.3929 25.5945V19.5918L8.90625 14.4643H4.29887ZM16.6071 25.5945C21.762 24.8192 25.7143 20.3711 25.7143 15C25.7143 14.8204 25.7098 14.6418 25.7012 14.4643H21.0937L16.6071 19.5918V25.5945ZM15 0C6.71574 0 0 6.71574 0 15C0 23.2843 6.71574 30 15 30C23.2843 30 30 23.2843 30 15C30 6.71574 23.2843 0 15 0Z" fill="#28653C"/>
</svg>
