<svg width="30" height="30" viewBox="0 0 30 30" fill="none" xmlns="http://www.w3.org/2000/svg">
<path fill-rule="evenodd" clip-rule="evenodd" d="M26.1135 5.76844C26.6365 5.24541 26.6365 4.39744 26.1135 3.87441C25.5904 3.35139 24.7425 3.35139 24.2194 3.87441L22.0765 6.01727C21.5535 6.5403 21.5535 7.38827 22.0765 7.9113C22.5996 8.43433 23.4475 8.43433 23.9706 7.9113L26.1135 5.76844ZM8.02353 23.0357V10.4464C8.02353 8.96708 9.22278 7.76786 10.7021 7.76786C12.1814 7.76786 13.3807 8.96708 13.3807 10.4464V17.8865L18.5052 17.7918C21.7789 17.7313 24.3835 20.5202 24.1 23.7821L23.5592 30H5.88068L1.65945 23.6681C0.998968 22.6774 1.12959 21.3582 1.97155 20.5163C2.94704 19.5408 4.52862 19.5408 5.50411 20.5163L8.02353 23.0357Z" fill="#EEEEEE"/>
<path fill-rule="evenodd" clip-rule="evenodd" d="M10.1666 3.21429C6.91208 3.21429 4.27375 5.85261 4.27375 9.10714C4.27375 9.54482 4.32119 9.96956 4.41061 10.3771C4.60079 11.2442 4.05213 12.1011 3.18515 12.2913C2.31817 12.4815 1.46116 11.9329 1.27097 11.0659C1.13226 10.4335 1.05947 9.7779 1.05947 9.10714C1.05947 4.07741 5.13687 0 10.1666 0C11.5604 0 12.8854 0.314229 14.0705 0.877221C14.8722 1.25808 15.2134 2.21676 14.8326 3.01849C14.4517 3.82024 13.493 4.16143 12.6913 3.78056C11.928 3.41796 11.0733 3.21429 10.1666 3.21429ZM2.98891 21.3932C2.60718 21.7749 2.57352 22.3826 2.91076 22.8041L6.92671 27.8241C7.38878 28.4016 7.29513 29.2444 6.71755 29.7064C6.13996 30.1686 5.29715 30.075 4.83509 29.4973L0.819141 24.4774C-0.370717 22.9901 -0.251962 20.846 1.09486 19.4991C2.55464 18.0393 4.92143 18.0393 6.3812 19.4991L6.68446 19.8024V10.4464C6.68446 8.22741 8.48333 6.42857 10.7023 6.42857C12.9213 6.42857 14.7202 8.22741 14.7202 10.4464V16.5222L18.4155 16.4539C22.513 16.3782 25.7605 19.8921 25.3626 23.9711L24.8925 28.7908C24.8207 29.5269 24.1656 30.0656 23.4293 29.9936C22.6933 29.9218 22.1548 29.2669 22.2265 28.5306L22.6967 23.7109C22.939 21.2263 20.961 19.0859 18.465 19.132L13.4056 19.2255C13.0462 19.2322 12.6992 19.0941 12.4427 18.8422C12.1861 18.5904 12.0416 18.246 12.0416 17.8865V10.4464C12.0416 9.70676 11.442 9.10714 10.7023 9.10714C9.96265 9.10714 9.36303 9.70676 9.36303 10.4464V23.0357C9.36303 23.5774 9.03674 24.0658 8.53628 24.273C8.03581 24.4804 7.45977 24.3658 7.07673 23.9826L4.48718 21.3932C4.07343 20.9794 3.40263 20.9794 2.98891 21.3932ZM23.0237 0C19.1775 0 16.0595 3.11801 16.0595 6.96429C16.0595 10.8106 19.1775 13.9286 23.0237 13.9286C26.8701 13.9286 29.988 10.8106 29.988 6.96429C29.988 3.11801 26.8701 0 23.0237 0ZM26.1135 3.87441C26.6365 4.39744 26.6365 5.24541 26.1135 5.76844L23.9706 7.9113C23.4475 8.43433 22.5996 8.43433 22.0765 7.9113C21.5535 7.38827 21.5535 6.5403 22.0765 6.01727L24.2194 3.87441C24.7425 3.35139 25.5904 3.35139 26.1135 3.87441Z" fill="#CFD1D5"/>
</svg>
