<svg width="38" height="50" viewBox="0 0 38 50" fill="none" xmlns="http://www.w3.org/2000/svg">
<path fill-rule="evenodd" clip-rule="evenodd" d="M17.3024 1.09622C10.5087 3.43497 8.33131 4.80569 8.75468 6.51942C8.91592 7.1443 9.03688 7.72907 9.03688 7.8096C9.03688 7.89014 8.06932 8.59572 6.87989 9.38199C5.69046 10.1683 3.85593 11.6198 2.82772 12.6278C1.77947 13.6156 0.831956 14.4421 0.710993 14.4421C-0.43817 14.4421 1.51732 17.8492 2.90826 18.2322C3.55336 18.4136 3.57357 18.4539 3.15019 18.5748C2.62607 18.7362 2.54537 19.9659 2.90826 22.7077C3.49287 27.2436 3.06966 27.0823 5.14611 37.9082C5.58971 40.2266 6.07341 43.0287 6.23465 44.1577C6.77898 48.2703 6.90011 49.5 10.0853 49.5H32.0595C32.4627 49.5 32.8054 49.2178 32.9263 48.8347C33.1885 47.9679 33.6924 44.823 33.9544 42.2426C34.398 38.0492 35.0834 32.9488 35.3655 28.7354C36.0309 18.3934 36.4544 16.8412 34.6803 16.8412C34.4787 16.8412 34.4383 16.5993 34.4987 15.9945C34.6197 14.7043 34.2568 14.18 32.4425 13.1115C32.1401 12.9302 32.4021 12.7286 34.2164 11.7406C37.9056 9.72467 38.3897 8.45469 36.7164 5.08805C35.0633 1.76168 32.1199 0.995616 25.2857 2.08414L22.9472 2.44704C20.8505 0.491541 20.5886 -0.0527965 17.3025 1.09637L17.3024 1.09622ZM21.2134 2.76967C21.173 2.80993 19.9433 3.2131 18.4717 3.69695C15.4679 4.68473 13.7141 5.59197 13.8753 6.03555C14.097 6.59995 14.6816 6.53948 17.5846 5.63239C23.7333 3.71717 30.0837 2.9309 33.6117 3.61627C33.9544 3.67674 35.0633 5.45095 34.8818 5.63239C34.8416 5.67267 34.418 5.61218 33.9141 5.51143C17.0605 2.08414 3.53331 16.2162 3.51308 16.2364C3.41233 16.0752 2.66633 14.9058 2.66633 14.7446C2.66633 14.4019 7.46434 10.8538 11.577 8.15229C12.464 7.56768 12.2624 6.98307 11.2343 7.24505C10.952 7.30553 10.7302 7.32559 10.7302 7.28548C10.7302 7.24505 10.6699 7.0636 10.6094 6.88215C10.3675 6.23707 20.4474 1.92292 20.9917 2.44704C21.1732 2.58822 21.2739 2.74945 21.2134 2.76967ZM34.5794 7.10403C35.9503 7.28548 35.9301 7.99105 34.4987 9.50295C32.7649 11.3375 31.7369 11.7811 31.7167 10.6723C31.6966 9.88607 29.4992 8.79738 28.4308 9.05953C27.9066 9.20054 27.6847 8.79738 26.4953 7.18457C29.2169 6.72092 32.362 6.82168 34.5794 7.10403ZM25.4873 7.78939C26.1526 8.25304 26.6768 9.14007 26.6768 9.78515C26.6768 10.7126 27.584 11.2569 28.8944 11.0956L30.0837 10.9545L29.9629 12.0431C29.8217 13.3334 30.5675 14.2204 31.7772 14.2204C32.8859 14.2204 33.0069 14.4421 32.382 15.3897C31.7167 16.4179 30.2048 16.6194 29.5395 15.7928C28.5114 14.5228 27.7452 13.7568 27.2411 13.4946C25.9914 12.8495 25.9307 13.3939 27.1001 14.8655L27.9267 15.9138C25.8502 16.1154 25.7495 16.0347 25.8099 16.6194C25.8906 17.4258 26.4751 17.5871 31.8981 18.2322C34.6197 18.5548 34.5794 18.5346 34.4585 19.4216C34.398 19.8248 34.1963 21.6997 34.0149 23.5947C33.9544 24.3205 34.4987 19.8852 32.5232 37.4244C31.5152 46.3551 30.8096 47.3631 30.4063 47.4438C29.9426 47.5245 29.9426 41.8192 30.5475 36.7993C31.0313 32.7876 31.4143 26.8001 31.1321 26.0541C30.8497 25.3285 26.8985 24.3608 26.858 25.0059C26.8178 25.5704 26.6768 26.3163 26.4953 27.0219C26.1324 28.3927 25.4469 40.2064 25.4469 44.9641V47.4035L23.3302 47.2825L22.927 25.9937C22.9269 25.6135 22.7068 25.2677 22.3624 25.1066C22.04 24.9454 20.9917 24.8244 19.9433 24.8042L19.1772 24.7842C18.5926 24.764 18.1089 25.268 18.1492 25.8526C18.3709 30.0056 18.2097 30.4289 18.2097 47.4438H16.0121C15.367 37.8477 15.2058 35.7309 14.0366 35.4284C12.6657 35.0858 12.6254 35.6906 13.5325 44.0166C13.6534 45.0649 13.7744 46.2745 13.8349 46.6777C13.9358 47.4035 13.8954 47.4438 13.351 47.4438H12.7666C12.1618 40.8515 12.0206 38.4928 11.4158 34.5414C10.8714 31.0942 10.2666 26.2356 10.3675 26.1348C10.448 26.0541 11.8996 25.9736 12.0005 25.9736C12.3432 28.6145 12.1013 27.1831 12.3029 29.7234C12.5449 32.8481 14.7622 33.7956 14.1978 29.8241C13.8551 27.405 13.9761 27.5259 14.097 26.7397C14.3188 25.409 14.0566 25.1268 12.2826 24.8447C10.5287 24.5623 8.77491 24.8244 8.83538 25.389C10.0248 38.1502 11.0328 47.3631 10.5489 47.5445C9.54096 47.9276 9.1378 47.6857 8.99662 46.597C8.73447 44.5205 7.84761 39.6418 7.06133 35.872C5.85169 30.1063 5.26708 25.4695 4.44053 19.9457C7.16209 19.1999 12.4842 17.6073 14.2382 17.9298C15.1252 18.0911 20.8708 17.2242 22.2617 17.2242C23.2899 17.2242 23.4511 17.0025 22.9069 16.3976C22.6045 16.055 23.935 13.6559 23.9552 13.6358C25.1446 11.9423 20.7698 12.5471 20.5481 15.5913L20.5077 16.2364H18.7338C16.5564 16.2364 16.5362 16.1557 18.2902 14.2607C19.8828 12.5269 19.903 12.6681 18.2902 10.9948L16.9798 9.62392C22.2819 7.7087 24.3786 7.54747 24.822 7.38623C24.8624 7.36602 25.1647 7.54747 25.4873 7.78939ZM16.6373 11.0351C17.1614 11.4182 17.3225 12.1238 17.0201 12.6883C15.1856 16.1557 15.2462 16.1759 14.339 16.3169C13.2302 16.4984 13.2302 16.4581 14.1777 14.8253C14.9841 13.4342 15.085 12.7891 14.5204 12.7891C14.2785 12.7891 12.323 15.5106 12.061 16.2364C11.94 16.5388 9.82316 16.9622 9.60145 16.7403C9.46026 16.5993 11.1738 13.2527 11.7382 12.6076C13.2301 10.8536 15.4074 10.1683 16.6373 11.0351ZM9.44021 14.1599C8.29104 17.0427 8.77475 16.9822 6.53706 17.5266C3.61384 18.2524 3.85577 17.5064 7.30311 15.1477C9.35936 13.7568 9.66192 13.6156 9.44021 14.1599ZM21.5361 40.1257C21.4554 42.9482 21.6168 45.71 21.6772 46.2946C21.778 47.1413 21.2136 47.2825 20.9717 47.2825C20.5683 47.2825 20.2457 46.9599 20.0845 40.7708C20.024 38.009 20.0643 33.1908 19.903 31.1143C19.4997 25.7115 19.4594 25.9736 20.3062 26.0744L21.2741 26.1953C21.4756 26.2155 21.6166 26.3768 21.6166 26.5784C21.6166 28.6549 21.5563 39.5411 21.5361 40.1257ZM30.0837 26.5179C30.0837 26.5985 29.9629 27.3445 29.8016 28.2315C29.5798 29.3402 29.2773 31.961 29.1764 36.1947C28.9547 44.3593 28.4911 47.484 27.846 47.484C27.6645 47.484 26.697 47.5849 26.8179 45.4883C26.9187 43.9562 27.1203 40.7305 27.1404 38.896C27.1807 34.9245 27.7048 28.3725 27.866 27.0421C27.967 26.1551 30.0837 25.7115 30.0837 26.5179Z" fill="white"/>
</svg>
