<svg width="29" height="28" viewBox="0 0 29 28" fill="none" xmlns="http://www.w3.org/2000/svg">
<path d="M27.75 3.99999V11.5M27.75 11.5H20.25M27.75 11.5L21.9625 6.04999C20.2382 4.32466 18 3.20647 15.5849 2.86392C13.1699 2.52136 10.7089 2.97301 8.57291 4.15079C6.43689 5.32857 4.74153 7.16867 3.7423 9.39382C2.74307 11.619 2.49411 14.1086 3.03293 16.4876C3.57175 18.8665 4.86917 21.0059 6.72967 22.5833C8.59016 24.1608 10.9129 25.0908 13.348 25.2332C15.783 25.3757 18.1984 24.7228 20.2302 23.3731C22.2619 22.0234 23.7999 20.0499 24.6125 17.75" stroke="#CFD1D5" stroke-width="4" stroke-linecap="round" stroke-linejoin="round"/>
</svg>
