<svg width="170" height="200" viewBox="0 0 170 200" fill="none" xmlns="http://www.w3.org/2000/svg">
<path fill-rule="evenodd" clip-rule="evenodd" d="M21.6979 24.9773C21.6979 23.2243 23.0619 22.0511 24.441 22.0511L145.559 22.0511C146.937 22.0511 148.301 23.2243 148.301 24.9773V73.7649L21.6979 73.7649L21.6979 24.9773ZM24.441 0.622559C10.9554 0.622559 0.269287 11.6634 0.269287 24.9773L0.269287 175.021C0.269287 188.336 10.9554 199.376 24.441 199.376L145.559 199.376C159.044 199.376 169.73 188.336 169.73 175.021L169.73 24.9773C169.73 11.6634 159.044 0.622559 145.559 0.622559L24.441 0.622559ZM39.7006 124.56C45.6179 124.56 50.4149 119.763 50.4149 113.845C50.4149 107.928 45.6179 103.131 39.7006 103.131C33.7833 103.131 28.9863 107.928 28.9863 113.845C28.9863 119.763 33.7833 124.56 39.7006 124.56ZM84.9997 124.56C90.917 124.56 95.714 119.763 95.714 113.845C95.714 107.928 90.917 103.131 84.9997 103.131C79.0823 103.131 74.2854 107.928 74.2854 113.845C74.2854 119.763 79.0823 124.56 84.9997 124.56ZM141.013 113.845C141.013 119.763 136.216 124.56 130.299 124.56C124.381 124.56 119.584 119.763 119.584 113.845C119.584 107.928 124.381 103.131 130.299 103.131C136.216 103.131 141.013 107.928 141.013 113.845ZM39.7006 170.634C45.6179 170.634 50.4149 165.837 50.4149 159.92C50.4149 154.003 45.6179 149.206 39.7006 149.206C33.7833 149.206 28.9863 154.003 28.9863 159.92C28.9863 165.837 33.7833 170.634 39.7006 170.634ZM95.714 159.92C95.714 165.837 90.917 170.634 84.9997 170.634C79.0823 170.634 74.2854 165.837 74.2854 159.92C74.2854 154.003 79.0823 149.206 84.9997 149.206C90.917 149.206 95.714 154.003 95.714 159.92ZM130.299 170.634C136.216 170.634 141.013 165.837 141.013 159.92C141.013 154.003 136.216 149.206 130.299 149.206C124.381 149.206 119.584 154.003 119.584 159.92C119.584 165.837 124.381 170.634 130.299 170.634ZM105.916 40.0243C100.985 40.0243 96.9873 44.0217 96.9873 48.9529C96.9873 53.8839 100.985 57.8814 105.916 57.8814H126.18C131.111 57.8814 135.109 53.8839 135.109 48.9529C135.109 44.0217 131.111 40.0243 126.18 40.0243H105.916Z" fill="white"/>
</svg>
