<svg width="28" height="30" viewBox="0 0 28 30" fill="none" xmlns="http://www.w3.org/2000/svg">
<path d="M2.75 7.5H5.25M5.25 7.5H25.25M5.25 7.5V25C5.25 25.663 5.51339 26.2989 5.98223 26.7678C6.45107 27.2366 7.08696 27.5 7.75 27.5H20.25C20.913 27.5 21.5489 27.2366 22.0178 26.7678C22.4866 26.2989 22.75 25.663 22.75 25V7.5M9 7.5V5C9 4.33696 9.26339 3.70107 9.73223 3.23223C10.2011 2.76339 10.837 2.5 11.5 2.5H16.5C17.163 2.5 17.7989 2.76339 18.2678 3.23223C18.7366 3.70107 19 4.33696 19 5V7.5M11.5 13.75V21.25M16.5 13.75V21.25" stroke="#28653C" stroke-width="4" stroke-linecap="round" stroke-linejoin="round"/>
</svg>
